<!DOCTYPE svg PUBLIC "-//W3C//DTD SVG 20010904//EN" "http://www.w3.org/TR/2001/REC-SVG-20010904/DTD/svg10.dtd">
<svg version="1.0" xmlns="http://www.w3.org/2000/svg" width="1600px" height="1200px" viewBox="0 0 16000 12000" preserveAspectRatio="xMidYMid meet">
<g id="layer101" fill="#74bf40" stroke="none">
 <path d="M2744 11121 c-269 -43 -496 -277 -559 -576 -18 -83 -32 -420 -39 -882 l-4 -333 119 0 119 0 0 373 c1 490 12 729 40 825 56 199 162 322 323 375 87 28 257 28 343 0 126 -41 222 -129 283 -258 70 -148 80 -245 88 -842 l6 -473 110 0 110 0 -7 493 c-9 614 -15 706 -56 819 -43 118 -116 232 -197 309 -83 78 -135 110 -239 145 -70 23 -98 27 -234 30 -85 1 -178 -1 -206 -5z"/>
 <path d="M6574 11115 c-137 -30 -321 -145 -420 -262 -148 -176 -226 -359 -240 -567 -26 -375 166 -720 493 -884 278 -140 664 -90 866 112 35 35 85 92 111 127 l48 63 -29 24 c-15 12 -55 39 -87 59 l-60 37 -20 -30 c-40 -56 -152 -160 -207 -192 -116 -66 -304 -90 -434 -57 -191 50 -361 238 -427 472 -29 102 -30 284 -4 388 57 220 187 388 366 474 71 34 80 36 203 39 100 4 143 1 192 -13 75 -20 210 -105 303 -189 l62 -58 0 -124 0 -124 -195 0 -195 0 0 -95 0 -95 290 0 290 0 0 450 0 450 -95 0 -95 0 0 -121 0 -121 -54 49 c-111 102 -247 173 -367 192 -86 14 -220 12 -295 -4z"/>
 <path d="M11555 11116 c-144 -33 -253 -95 -373 -210 -130 -125 -216 -270 -264 -447 -33 -120 -33 -336 0 -459 151 -564 730 -841 1204 -575 179 100 357 336 418 555 30 106 37 287 16 407 -61 350 -303 634 -611 718 -83 23 -312 29 -390 11z m329 -212 c203 -49 377 -248 437 -499 31 -133 24 -295 -18 -420 -41 -118 -91 -202 -167 -279 -234 -238 -591 -232 -819 14 -74 80 -158 236 -177 329 -17 84 -14 297 6 377 45 187 182 367 338 444 121 60 249 71 400 34z"/>
 <path d="M480 10225 l0 -895 403 0 c471 1 573 8 651 43 221 101 312 409 191 647 -26 51 -73 104 -140 156 l-39 31 69 38 c86 48 155 117 189 189 97 204 65 401 -87 542 -87 82 -148 112 -244 123 -43 5 -284 12 -535 16 l-458 6 0 -896z m944 681 c74 -21 106 -44 145 -104 47 -73 66 -160 51 -237 -22 -115 -94 -206 -189 -236 -23 -8 -157 -14 -373 -16 l-338 -5 0 312 0 312 323 -5 c256 -4 334 -8 381 -21z m-12 -818 c95 -57 142 -147 140 -274 -1 -94 -19 -135 -95 -211 l-61 -63 -338 0 -338 0 0 291 0 290 323 -3 322 -3 47 -27z"/>
 <path d="M4080 10225 l0 -895 89 0 89 0 217 273 c119 149 368 463 553 696 l337 423 3 -696 2 -696 110 0 110 0 0 895 0 895 -95 0 -95 0 -538 -672 -537 -672 -3 672 -2 672 -120 0 -120 0 0 -895z"/>
 <path d="M7663 11113 c-20 -4 -17 -14 71 -231 51 -125 172 -420 269 -657 283 -693 356 -868 367 -879 5 -5 51 -10 102 -10 l92 -1 147 360 c176 433 423 1040 513 1260 l66 160 -112 3 c-62 1 -117 1 -123 -2 -6 -2 -58 -119 -114 -260 l-103 -256 -377 0 -376 0 -26 68 c-14 37 -59 151 -99 255 l-73 187 -81 0 c-45 0 -90 2 -101 4 -11 2 -30 2 -42 -1z m1110 -702 c4 -4 -39 -126 -96 -272 -135 -341 -209 -521 -213 -516 -10 10 -205 481 -314 756 l-21 54 318 -7 c175 -4 321 -11 326 -15z"/>
 <path d="M9520 10225 l0 -895 120 0 120 0 0 790 0 790 495 0 495 0 0 105 0 105 -615 0 -615 0 0 -895z"/>
 <path d="M13439 11093 c-6 -15 -43 -107 -84 -203 -375 -893 -639 -1539 -631 -1547 4 -4 57 -7 118 -8 l112 0 67 170 c57 142 487 1221 522 1308 6 15 14 27 18 27 5 0 171 -393 264 -628 l37 -92 -150 -377 c-108 -271 -148 -380 -139 -385 7 -4 55 -8 107 -8 l95 0 29 78 c61 166 188 498 195 510 7 12 53 -97 171 -408 28 -74 55 -145 60 -157 9 -22 15 -23 109 -23 55 0 102 4 106 9 3 5 1 20 -5 33 -5 13 -73 182 -150 376 l-140 353 152 365 c83 200 155 361 158 357 4 -5 73 -174 153 -378 270 -683 434 -1100 440 -1117 6 -16 21 -18 132 -18 l125 0 -19 48 c-10 26 -60 146 -111 267 -324 775 -510 1217 -560 1335 l-57 135 -103 0 -103 0 -147 -350 c-80 -192 -158 -375 -172 -405 l-25 -55 -33 65 c-19 36 -100 218 -180 405 l-146 340 -102 3 -102 3 -11 -28z"/>
 <path d="M3425 8676 c-204 -32 -390 -131 -536 -284 -180 -188 -274 -394 -298 -655 -45 -479 245 -931 695 -1085 106 -36 185 -45 373 -40 146 5 188 9 246 28 205 66 416 216 533 378 116 163 210 499 188 676 l-7 56 -839 0 -839 0 5 33 c33 184 76 289 161 392 139 169 321 259 518 259 136 -1 253 -36 371 -109 58 -37 180 -155 189 -184 3 -11 14 -23 24 -26 16 -5 276 56 287 68 10 10 -120 188 -172 237 -155 140 -340 228 -544 255 -126 17 -246 17 -355 1z m870 -1228 c-32 -233 -221 -465 -450 -554 -43 -16 -75 -19 -230 -18 -201 0 -219 4 -336 74 -164 97 -306 307 -334 492 l-7 47 38 4 c22 2 329 4 682 5 l644 2 -7 -52z"/>
 <path d="M6206 8669 c-153 -37 -267 -122 -333 -245 -65 -122 -64 -115 -73 -819 -5 -352 -9 -893 -9 -1202 l-1 -563 370 0 370 0 1 678 c1 372 4 848 7 1057 7 355 8 382 27 414 34 57 67 75 148 79 52 3 90 -2 137 -17 35 -11 68 -17 73 -12 9 9 87 459 87 502 0 24 -8 29 -70 53 -239 88 -550 120 -734 75z"/>
 <path d="M7985 8679 c-457 -67 -807 -388 -885 -814 -20 -110 -23 -311 -6 -422 56 -369 321 -676 683 -796 128 -42 239 -57 425 -57 176 0 268 13 401 57 309 102 541 335 646 649 59 175 64 462 11 652 -24 86 -81 205 -141 294 -53 79 -175 201 -257 257 -89 60 -234 128 -322 150 -145 37 -410 51 -555 30z m317 -629 c164 -50 245 -203 235 -440 -6 -174 -51 -269 -159 -343 -138 -95 -305 -82 -419 32 -30 31 -69 83 -85 116 -29 59 -29 63 -29 225 0 160 1 167 28 222 38 77 107 151 169 182 66 33 166 35 260 6z"/>
 <path d="M10125 8675 c-190 -44 -289 -119 -367 -281 -35 -72 -40 -92 -48 -195 -5 -63 -10 -191 -10 -285 0 -94 -3 -300 -7 -457 l-6 -287 -114 0 -113 0 0 -270 0 -270 115 0 115 0 0 -320 0 -320 370 0 370 0 0 320 0 320 205 0 205 0 0 270 0 270 -207 0 -206 0 6 348 c4 191 11 369 17 397 6 30 20 60 35 75 37 37 146 39 277 7 l97 -24 10 31 c12 39 64 284 91 430 16 87 17 112 7 118 -18 12 -247 83 -347 109 -110 27 -402 36 -495 14z"/>
 <path d="M11625 8671 c-97 -25 -120 -35 -192 -87 -105 -75 -181 -198 -223 -359 -27 -102 -39 -444 -40 -1122 l0 -473 370 0 370 0 1 188 c0 103 4 387 9 632 10 551 10 550 125 601 117 52 310 -10 401 -130 l34 -44 0 -623 0 -624 370 0 370 0 1 508 c0 558 8 768 32 823 11 26 27 41 61 57 l46 22 0 310 c0 193 -4 310 -10 310 -5 0 -60 7 -122 16 -130 19 -285 14 -365 -10 -116 -36 -198 -120 -233 -237 -24 -80 -17 -80 -105 1 -156 143 -297 211 -509 245 -124 20 -303 18 -391 -4z"/>
 <path d="M14250 8674 c-103 -19 -289 -75 -387 -115 -80 -34 -233 -132 -276 -177 l-28 -30 29 -58 c59 -116 213 -379 221 -377 4 1 45 25 92 54 203 126 414 198 580 199 120 0 159 -21 159 -87 0 -72 -48 -99 -368 -208 -139 -47 -290 -103 -336 -124 -162 -75 -264 -163 -314 -269 -25 -53 -27 -66 -25 -180 2 -149 15 -217 58 -302 163 -323 519 -470 986 -404 194 27 342 85 522 206 67 45 87 64 82 76 -7 20 -227 367 -253 401 l-19 24 -144 -76 c-262 -137 -406 -171 -505 -119 -72 37 -80 105 -17 150 55 38 110 60 303 120 464 144 608 231 698 419 37 78 37 78 36 208 0 150 -16 223 -71 327 -86 165 -279 293 -503 334 -120 22 -418 27 -520 8z"/>
 <path d="M520 7285 l0 -1375 175 0 175 0 0 1215 0 1215 765 0 765 0 0 160 0 160 -940 0 -940 0 0 -1375z"/>
 <path d="M14295 5610 c-341 -95 -733 -159 -1160 -190 -296 -21 -911 -12 -1660 25 -812 40 -1079 47 -1550 42 -773 -9 -1228 -69 -1705 -227 -269 -89 -569 -234 -667 -323 -36 -33 -28 -40 35 -33 65 7 102 17 292 75 310 95 778 166 1262 193 253 14 1244 -2 1698 -27 1526 -84 2316 -47 2960 140 299 87 680 283 680 350 0 22 -29 18 -185 -25z"/>
 <path d="M8955 4939 c-514 -14 -1150 -142 -1535 -308 -117 -51 -302 -161 -426 -254 -488 -364 -789 -841 -900 -1427 -22 -116 -31 -633 -14 -797 20 -192 56 -386 79 -422 12 -19 45 -9 242 69 367 146 631 285 965 506 208 138 584 470 728 643 260 311 483 726 540 1005 17 80 22 216 8 216 -13 0 -31 -22 -137 -175 -212 -302 -420 -533 -713 -793 -294 -261 -626 -461 -948 -572 l-52 -18 -6 36 c-3 21 -6 153 -6 295 0 292 10 370 76 558 78 226 180 406 293 517 129 125 367 289 529 364 235 109 630 206 958 238 137 13 658 13 824 0 141 -11 632 -78 850 -116 80 -14 424 -81 765 -149 1051 -210 1288 -245 1811 -265 301 -11 646 -1 867 26 328 40 635 159 922 360 154 107 421 401 392 430 -3 4 -55 -14 -114 -39 -265 -110 -633 -207 -934 -246 -320 -42 -392 -46 -739 -46 -346 0 -406 4 -805 51 -148 17 -576 75 -770 104 -383 57 -1020 136 -1375 169 -390 38 -906 52 -1375 40z"/>
 <path d="M9161 4110 c-324 -228 -557 -530 -641 -831 -42 -151 -45 -540 -5 -732 50 -241 211 -586 418 -897 176 -263 288 -393 676 -781 366 -366 496 -477 543 -466 38 10 426 356 653 582 211 210 439 491 575 707 83 134 235 433 290 573 104 267 126 398 117 726 -6 195 -7 210 -38 305 -78 244 -197 431 -409 643 -100 100 -232 192 -307 215 -36 11 -29 -10 43 -135 132 -226 198 -393 229 -576 23 -131 22 -374 0 -513 -51 -315 -214 -650 -438 -901 -208 -232 -633 -605 -713 -625 -49 -13 -114 31 -359 242 -434 374 -704 771 -809 1193 -35 138 -46 224 -46 354 0 279 84 546 264 846 94 155 89 164 -43 71z"/>
 <path d="M11593 4066 c8 -118 61 -286 155 -493 123 -267 221 -423 380 -604 337 -382 713 -674 1222 -947 212 -113 603 -279 701 -297 32 -6 37 -4 43 17 44 155 98 402 107 489 17 163 7 503 -20 654 -65 366 -175 632 -426 1028 l-50 78 -175 -7 c-96 -4 -217 -9 -268 -13 l-93 -6 51 -95 c136 -256 202 -421 237 -595 26 -131 26 -490 0 -591 l-19 -72 -86 35 c-135 54 -364 174 -515 271 -246 156 -369 255 -563 447 -218 216 -290 299 -484 555 -81 107 -160 206 -175 220 l-28 25 6 -99z"/>
 <path d="M7359 2082 c-127 -78 -175 -113 -177 -128 -5 -32 53 -282 99 -427 44 -142 156 -425 197 -500 32 -60 29 -60 227 20 245 98 705 339 948 496 79 51 107 74 107 90 0 20 -45 108 -122 239 l-40 67 -36 -15 c-21 -8 -108 -53 -196 -100 -174 -92 -280 -141 -430 -199 l-99 -38 -24 29 c-59 73 -130 229 -203 447 -32 95 -47 127 -60 127 -9 0 -95 -48 -191 -108z"/>
 <path d="M12713 2178 c-5 -7 -24 -56 -42 -108 -40 -115 -128 -312 -179 -400 -47 -81 -60 -84 -184 -34 -121 48 -440 202 -542 261 l-79 47 -23 -27 c-57 -67 -158 -265 -148 -291 7 -19 189 -138 374 -244 191 -110 510 -266 685 -335 214 -85 184 -94 264 74 83 174 117 262 169 439 71 235 103 372 91 387 -6 7 -79 54 -161 104 -82 51 -162 102 -178 115 -32 28 -34 28 -47 12z"/>
 </g>
<g id="layer102" fill="#9659ff" stroke="none">
 <path d="M3425 8676 c-204 -32 -390 -131 -536 -284 -180 -188 -274 -394 -298 -655 -45 -479 245 -931 695 -1085 106 -36 185 -45 373 -40 146 5 188 9 246 28 205 66 416 216 533 378 116 163 210 499 188 676 l-7 56 -839 0 -839 0 5 33 c33 184 76 289 161 392 139 169 321 259 518 259 136 -1 253 -36 371 -109 58 -37 180 -155 189 -184 3 -11 14 -23 24 -26 16 -5 276 56 287 68 10 10 -120 188 -172 237 -155 140 -340 228 -544 255 -126 17 -246 17 -355 1z m870 -1228 c-32 -233 -221 -465 -450 -554 -43 -16 -75 -19 -230 -18 -201 0 -219 4 -336 74 -164 97 -306 307 -334 492 l-7 47 38 4 c22 2 329 4 682 5 l644 2 -7 -52z"/>
 <path d="M6206 8669 c-153 -37 -267 -122 -333 -245 -65 -122 -64 -115 -73 -819 -5 -352 -9 -893 -9 -1202 l-1 -563 370 0 370 0 1 678 c1 372 4 848 7 1057 7 355 8 382 27 414 34 57 67 75 148 79 52 3 90 -2 137 -17 35 -11 68 -17 73 -12 9 9 87 459 87 502 0 24 -8 29 -70 53 -239 88 -550 120 -734 75z"/>
 <path d="M7985 8679 c-457 -67 -807 -388 -885 -814 -20 -110 -23 -311 -6 -422 56 -369 321 -676 683 -796 128 -42 239 -57 425 -57 176 0 268 13 401 57 309 102 541 335 646 649 59 175 64 462 11 652 -24 86 -81 205 -141 294 -53 79 -175 201 -257 257 -89 60 -234 128 -322 150 -145 37 -410 51 -555 30z m317 -629 c164 -50 245 -203 235 -440 -6 -174 -51 -269 -159 -343 -138 -95 -305 -82 -419 32 -30 31 -69 83 -85 116 -29 59 -29 63 -29 225 0 160 1 167 28 222 38 77 107 151 169 182 66 33 166 35 260 6z"/>
 <path d="M10125 8675 c-190 -44 -289 -119 -367 -281 -35 -72 -40 -92 -48 -195 -5 -63 -10 -191 -10 -285 0 -94 -3 -300 -7 -457 l-6 -287 -114 0 -113 0 0 -270 0 -270 115 0 115 0 0 -320 0 -320 370 0 370 0 0 320 0 320 205 0 205 0 0 270 0 270 -207 0 -206 0 6 348 c4 191 11 369 17 397 6 30 20 60 35 75 37 37 146 39 277 7 l97 -24 10 31 c12 39 64 284 91 430 16 87 17 112 7 118 -18 12 -247 83 -347 109 -110 27 -402 36 -495 14z"/>
 <path d="M11625 8671 c-97 -25 -120 -35 -192 -87 -105 -75 -181 -198 -223 -359 -27 -102 -39 -444 -40 -1122 l0 -473 370 0 370 0 1 188 c0 103 4 387 9 632 10 551 10 550 125 601 117 52 310 -10 401 -130 l34 -44 0 -623 0 -624 370 0 370 0 1 508 c0 558 8 768 32 823 11 26 27 41 61 57 l46 22 0 310 c0 193 -4 310 -10 310 -5 0 -60 7 -122 16 -130 19 -285 14 -365 -10 -116 -36 -198 -120 -233 -237 -24 -80 -17 -80 -105 1 -156 143 -297 211 -509 245 -124 20 -303 18 -391 -4z"/>
 <path d="M14250 8674 c-103 -19 -289 -75 -387 -115 -80 -34 -233 -132 -276 -177 l-28 -30 29 -58 c59 -116 213 -379 221 -377 4 1 45 25 92 54 203 126 414 198 580 199 120 0 159 -21 159 -87 0 -72 -48 -99 -368 -208 -139 -47 -290 -103 -336 -124 -162 -75 -264 -163 -314 -269 -25 -53 -27 -66 -25 -180 2 -149 15 -217 58 -302 163 -323 519 -470 986 -404 194 27 342 85 522 206 67 45 87 64 82 76 -7 20 -227 367 -253 401 l-19 24 -144 -76 c-262 -137 -406 -171 -505 -119 -72 37 -80 105 -17 150 55 38 110 60 303 120 464 144 608 231 698 419 37 78 37 78 36 208 0 150 -16 223 -71 327 -86 165 -279 293 -503 334 -120 22 -418 27 -520 8z"/>
 <path d="M520 7285 l0 -1375 175 0 175 0 0 1215 0 1215 765 0 765 0 0 160 0 160 -940 0 -940 0 0 -1375z"/>
 <path d="M8955 4939 c-514 -14 -1150 -142 -1535 -308 -117 -51 -302 -161 -426 -254 -488 -364 -789 -841 -900 -1427 -22 -116 -31 -633 -14 -797 20 -192 56 -386 79 -422 12 -19 45 -9 242 69 367 146 631 285 965 506 208 138 584 470 728 643 260 311 483 726 540 1005 17 80 22 216 8 216 -13 0 -31 -22 -137 -175 -212 -302 -420 -533 -713 -793 -294 -261 -626 -461 -948 -572 l-52 -18 -6 36 c-3 21 -6 153 -6 295 0 292 10 370 76 558 78 226 180 406 293 517 129 125 367 289 529 364 235 109 630 206 958 238 137 13 658 13 824 0 141 -11 632 -78 850 -116 80 -14 424 -81 765 -149 1051 -210 1288 -245 1811 -265 301 -11 646 -1 867 26 328 40 635 159 922 360 154 107 421 401 392 430 -3 4 -55 -14 -114 -39 -265 -110 -633 -207 -934 -246 -320 -42 -392 -46 -739 -46 -346 0 -406 4 -805 51 -148 17 -576 75 -770 104 -383 57 -1020 136 -1375 169 -390 38 -906 52 -1375 40z"/>
 <path d="M9161 4110 c-324 -228 -557 -530 -641 -831 -42 -151 -45 -540 -5 -732 50 -241 211 -586 418 -897 176 -263 288 -393 676 -781 366 -366 496 -477 543 -466 38 10 426 356 653 582 211 210 439 491 575 707 83 134 235 433 290 573 104 267 126 398 117 726 -6 195 -7 210 -38 305 -78 244 -197 431 -409 643 -100 100 -232 192 -307 215 -36 11 -29 -10 43 -135 132 -226 198 -393 229 -576 23 -131 22 -374 0 -513 -51 -315 -214 -650 -438 -901 -208 -232 -633 -605 -713 -625 -49 -13 -114 31 -359 242 -434 374 -704 771 -809 1193 -35 138 -46 224 -46 354 0 279 84 546 264 846 94 155 89 164 -43 71z"/>
 <path d="M11593 4066 c8 -118 61 -286 155 -493 123 -267 221 -423 380 -604 337 -382 713 -674 1222 -947 212 -113 603 -279 701 -297 32 -6 37 -4 43 17 44 155 98 402 107 489 17 163 7 503 -20 654 -65 366 -175 632 -426 1028 l-50 78 -175 -7 c-96 -4 -217 -9 -268 -13 l-93 -6 51 -95 c136 -256 202 -421 237 -595 26 -131 26 -490 0 -591 l-19 -72 -86 35 c-135 54 -364 174 -515 271 -246 156 -369 255 -563 447 -218 216 -290 299 -484 555 -81 107 -160 206 -175 220 l-28 25 6 -99z"/>
 <path d="M7359 2082 c-127 -78 -175 -113 -177 -128 -5 -32 53 -282 99 -427 44 -142 156 -425 197 -500 32 -60 29 -60 227 20 245 98 705 339 948 496 79 51 107 74 107 90 0 20 -45 108 -122 239 l-40 67 -36 -15 c-21 -8 -108 -53 -196 -100 -174 -92 -280 -141 -430 -199 l-99 -38 -24 29 c-59 73 -130 229 -203 447 -32 95 -47 127 -60 127 -9 0 -95 -48 -191 -108z"/>
 <path d="M12713 2178 c-5 -7 -24 -56 -42 -108 -40 -115 -128 -312 -179 -400 -47 -81 -60 -84 -184 -34 -121 48 -440 202 -542 261 l-79 47 -23 -27 c-57 -67 -158 -265 -148 -291 7 -19 189 -138 374 -244 191 -110 510 -266 685 -335 214 -85 184 -94 264 74 83 174 117 262 169 439 71 235 103 372 91 387 -6 7 -79 54 -161 104 -82 51 -162 102 -178 115 -32 28 -34 28 -47 12z"/>
 </g>
<g id="layer103" fill="#f13fff" stroke="none">
 <path d="M3425 8676 c-204 -32 -390 -131 -536 -284 -180 -188 -274 -394 -298 -655 -45 -479 245 -931 695 -1085 106 -36 185 -45 373 -40 146 5 188 9 246 28 205 66 416 216 533 378 116 163 210 499 188 676 l-7 56 -840 0 -839 0 4 23 c32 152 41 189 59 232 79 191 258 350 463 411 69 21 234 24 304 5 69 -18 170 -61 226 -96 58 -37 180 -155 189 -184 3 -11 14 -23 24 -26 16 -5 276 56 287 68 10 10 -120 188 -172 237 -155 140 -340 228 -544 255 -126 17 -246 17 -355 1z m870 -1228 c-32 -233 -221 -465 -450 -554 -43 -16 -75 -19 -230 -18 -201 0 -219 4 -336 74 -164 97 -306 307 -334 492 l-7 47 38 4 c22 2 329 4 682 5 l644 2 -7 -52z"/>
 <path d="M6206 8669 c-153 -37 -267 -122 -333 -245 -65 -122 -64 -115 -73 -819 -5 -352 -9 -893 -9 -1202 l-1 -563 370 0 370 0 1 678 c1 372 4 848 7 1057 7 355 8 382 27 414 34 57 67 75 148 79 52 3 90 -2 137 -17 35 -11 68 -17 73 -12 9 9 87 459 87 502 0 24 -8 29 -70 53 -239 88 -550 120 -734 75z"/>
 <path d="M7985 8679 c-457 -67 -807 -388 -885 -814 -20 -110 -23 -311 -6 -422 56 -369 321 -676 683 -796 128 -42 239 -57 425 -57 176 0 268 13 401 57 309 102 541 335 646 649 59 175 64 462 11 652 -24 86 -81 205 -141 294 -53 79 -175 201 -257 257 -89 60 -234 128 -322 150 -145 37 -410 51 -555 30z m317 -629 c164 -50 245 -203 235 -440 -6 -174 -51 -269 -159 -343 -138 -95 -305 -82 -419 32 -30 31 -69 83 -85 116 -29 59 -29 63 -29 225 0 160 1 167 28 222 38 77 107 151 169 182 66 33 166 35 260 6z"/>
 <path d="M10125 8675 c-190 -44 -289 -119 -367 -281 -35 -72 -40 -92 -48 -195 -5 -63 -10 -191 -10 -285 0 -94 -3 -300 -7 -457 l-6 -287 -114 0 -113 0 0 -270 0 -270 115 0 115 0 0 -320 0 -320 370 0 370 0 0 320 0 320 205 0 205 0 0 270 0 270 -207 0 -206 0 6 348 c4 191 11 369 17 397 6 30 20 60 35 75 37 37 146 39 277 7 l97 -24 10 31 c12 39 64 284 91 430 16 87 17 112 7 118 -18 12 -247 83 -347 109 -110 27 -402 36 -495 14z"/>
 <path d="M11625 8671 c-97 -25 -120 -35 -192 -87 -105 -75 -181 -198 -223 -359 -27 -102 -39 -444 -40 -1122 l0 -473 370 0 370 0 1 188 c0 103 4 387 9 632 10 551 10 550 125 601 117 52 310 -10 401 -130 l34 -44 0 -623 0 -624 370 0 370 0 1 508 c0 558 8 768 32 823 11 26 27 41 61 57 l46 22 0 310 c0 193 -4 310 -10 310 -5 0 -60 7 -122 16 -130 19 -285 14 -365 -10 -116 -36 -198 -120 -233 -237 -24 -80 -17 -80 -105 1 -156 143 -297 211 -509 245 -124 20 -303 18 -391 -4z"/>
 <path d="M14250 8674 c-103 -19 -289 -75 -387 -115 -80 -34 -233 -132 -276 -177 l-28 -30 29 -58 c59 -116 213 -379 221 -377 4 1 45 25 92 54 203 126 414 198 580 199 120 0 159 -21 159 -87 0 -72 -48 -99 -368 -208 -139 -47 -290 -103 -336 -124 -162 -75 -264 -163 -314 -269 -25 -53 -27 -66 -25 -180 2 -149 15 -217 58 -302 163 -323 519 -470 986 -404 194 27 342 85 522 206 67 45 87 64 82 76 -7 20 -227 367 -253 401 l-19 24 -144 -76 c-262 -137 -406 -171 -505 -119 -72 37 -80 105 -17 150 55 38 110 60 303 120 464 144 608 231 698 419 37 78 37 78 36 208 0 150 -16 223 -71 327 -86 165 -279 293 -503 334 -120 22 -418 27 -520 8z"/>
 <path d="M520 7285 l0 -1375 175 0 175 0 0 1215 0 1215 765 0 765 0 0 160 0 160 -940 0 -940 0 0 -1375z"/>
 <path d="M8955 4939 c-514 -14 -1150 -142 -1535 -308 -117 -51 -302 -161 -426 -254 -488 -364 -789 -841 -900 -1427 -22 -116 -31 -633 -14 -797 20 -192 56 -386 79 -422 12 -19 45 -9 242 69 367 146 631 285 965 506 208 138 584 470 728 643 260 311 483 726 540 1005 17 80 22 216 8 216 -13 0 -31 -22 -137 -175 -212 -302 -420 -533 -713 -793 -294 -261 -626 -461 -948 -572 l-52 -18 -6 36 c-3 21 -6 153 -6 295 0 292 10 370 76 558 78 226 180 406 293 517 129 125 367 289 529 364 235 109 630 206 958 238 137 13 658 13 824 0 141 -11 632 -78 850 -116 80 -14 424 -81 765 -149 1051 -210 1288 -245 1811 -265 301 -11 646 -1 867 26 328 40 635 159 922 360 154 107 421 401 392 430 -3 4 -55 -14 -114 -39 -265 -110 -633 -207 -934 -246 -320 -42 -392 -46 -739 -46 -346 0 -406 4 -805 51 -148 17 -576 75 -770 104 -383 57 -1020 136 -1375 169 -390 38 -906 52 -1375 40z"/>
 <path d="M9161 4110 c-324 -228 -557 -530 -641 -831 -42 -151 -45 -540 -5 -732 50 -241 211 -586 418 -897 176 -263 288 -393 676 -781 366 -366 496 -477 543 -466 38 10 426 356 653 582 211 210 439 491 575 707 83 134 235 433 290 573 104 267 126 398 117 726 -6 195 -7 210 -38 305 -78 244 -197 431 -409 643 -100 100 -232 192 -307 215 -36 11 -29 -10 43 -135 132 -226 198 -393 229 -576 23 -131 22 -374 0 -513 -51 -315 -214 -650 -438 -901 -208 -232 -633 -605 -713 -625 -49 -13 -114 31 -359 242 -434 374 -704 771 -809 1193 -35 138 -46 224 -46 354 0 279 84 546 264 846 94 155 89 164 -43 71z"/>
 <path d="M11593 4066 c8 -118 61 -286 155 -493 123 -267 221 -423 380 -604 337 -382 713 -674 1222 -947 212 -113 603 -279 701 -297 32 -6 37 -4 43 17 44 155 98 402 107 489 17 163 7 503 -20 654 -65 366 -175 632 -426 1028 l-50 78 -175 -7 c-96 -4 -217 -9 -268 -13 l-93 -6 51 -95 c136 -256 202 -421 237 -595 26 -131 26 -490 0 -591 l-19 -72 -86 35 c-135 54 -364 174 -515 271 -246 156 -369 255 -563 447 -218 216 -290 299 -484 555 -81 107 -160 206 -175 220 l-28 25 6 -99z"/>
 </g>

</svg>